<svg xmlns="http://www.w3.org/2000/svg" viewBox="-95.4 -922.9 1075.8 1075.8" role="img" aria-label="Ruark Industries">
  <title>Ruark Industries</title>
  <g transform="scale(1,-1)" fill="#9A5D37">
    <path d="M695 577Q695 494 647.0 438.0Q599 382 494 363L726 97Q750 69 783.0 54.5Q816 40 850 40V0H613L365 304Q349 324 335.0 335.0Q321 346 309.5 350.5Q298 355 287 355V159Q287 110 297.0 84.0Q307 58 338.0 49.0Q369 40 432 40V0H35V40Q79 40 101.5 49.0Q124 58 132.0 82.5Q140 107 140 154V616Q140 663 133.5 686.5Q127 710 107.0 719.0Q87 728 46 730V770H392Q536 770 615.5 719.0Q695 668 695 577ZM287 697V415H352Q446 415 492.5 452.0Q539 489 539 572Q539 636 500.0 675.0Q461 714 392 714H305Q287 714 287 697Z"/>
  </g>
</svg>
